<svg xmlns="http://www.w3.org/2000/svg" xmlns:xlink="http://www.w3.org/1999/xlink" width="559" zoomAndPan="magnify" viewBox="0 0 419.25 595.499986" height="794" preserveAspectRatio="xMidYMid meet" version="1.0"><defs><clipPath id="f421360016"><path d="M 406 169 L 416.726562 169 L 416.726562 180 L 406 180 Z M 406 169 " clip-rule="nonzero"/></clipPath><clipPath id="055611824d"><rect x="0" width="417" y="0" height="373"/></clipPath></defs><g transform="matrix(1, 0, 0, 1, 0, 93)"><g clip-path="url(#055611824d)"><path fill="#000000" d="M 267.851562 302.097656 L 145.855469 302.097656 L 84.859375 196.503906 L 145.855469 90.914062 L 267.851562 90.914062 L 328.851562 196.503906 Z M 148.695312 297.1875 L 265.011719 297.1875 L 323.171875 196.503906 L 265.011719 95.824219 L 148.695312 95.824219 L 90.53125 196.503906 Z M 148.695312 297.1875 " fill-opacity="1" fill-rule="nonzero"/><path fill="#000000" d="M 374.058594 200.796875 C 374.058594 200.796875 374.011719 200.796875 373.988281 200.796875 L 324.507812 198.550781 C 323.691406 198.511719 323.0625 197.824219 323.101562 197.011719 C 323.140625 196.199219 323.832031 195.566406 324.640625 195.605469 L 374.121094 197.851562 C 374.9375 197.890625 375.566406 198.578125 375.527344 199.390625 C 375.492188 200.179688 374.839844 200.796875 374.050781 200.796875 Z M 374.058594 200.796875 " fill-opacity="1" fill-rule="nonzero"/><path fill="#000000" d="M 373.582031 204.289062 C 376.332031 204.410156 378.667969 202.285156 378.792969 199.53125 C 378.914062 196.78125 376.785156 194.445312 374.03125 194.324219 C 371.28125 194.203125 368.945312 196.328125 368.820312 199.082031 C 368.699219 201.832031 370.828125 204.164062 373.582031 204.289062 Z M 373.582031 204.289062 " fill-opacity="1" fill-rule="nonzero"/><path fill="#000000" d="M 392.894531 211.449219 L 392.871094 211.449219 L 317.769531 210.238281 C 316.953125 210.222656 316.304688 209.554688 316.320312 208.738281 C 316.332031 207.933594 316.988281 207.289062 317.792969 207.289062 L 317.820312 207.289062 L 392.921875 208.5 C 393.734375 208.515625 394.386719 209.183594 394.371094 209.996094 C 394.355469 210.804688 393.703125 211.449219 392.894531 211.449219 Z M 392.894531 211.449219 " fill-opacity="1" fill-rule="nonzero"/><path fill="#000000" d="M 396.972656 207.492188 C 397.132812 207.773438 397.269531 208.070312 397.371094 208.382812 C 397.476562 208.691406 397.550781 209.011719 397.589844 209.335938 C 397.632812 209.660156 397.644531 209.984375 397.621094 210.3125 C 397.597656 210.640625 397.542969 210.960938 397.457031 211.277344 C 397.371094 211.59375 397.257812 211.898438 397.109375 212.191406 C 396.964844 212.484375 396.792969 212.757812 396.589844 213.019531 C 396.390625 213.277344 396.167969 213.515625 395.917969 213.730469 C 395.671875 213.945312 395.40625 214.132812 395.121094 214.296875 C 394.839844 214.460938 394.542969 214.59375 394.230469 214.695312 C 393.917969 214.800781 393.601562 214.875 393.277344 214.914062 C 392.953125 214.957031 392.625 214.96875 392.300781 214.945312 C 391.972656 214.921875 391.652344 214.867188 391.335938 214.78125 C 391.019531 214.695312 390.714844 214.582031 390.421875 214.433594 C 390.128906 214.289062 389.851562 214.117188 389.589844 213.914062 C 389.332031 213.714844 389.09375 213.492188 388.878906 213.246094 C 388.664062 213 388.476562 212.734375 388.3125 212.449219 C 388.148438 212.164062 388.015625 211.867188 387.910156 211.558594 C 387.808594 211.246094 387.734375 210.929688 387.691406 210.605469 C 387.652344 210.277344 387.640625 209.953125 387.664062 209.625 C 387.6875 209.300781 387.742188 208.980469 387.828125 208.664062 C 387.914062 208.347656 388.027344 208.042969 388.175781 207.75 C 388.320312 207.457031 388.492188 207.179688 388.695312 206.921875 C 388.894531 206.660156 389.117188 206.425781 389.363281 206.210938 C 389.613281 205.992188 389.878906 205.804688 390.160156 205.640625 C 390.445312 205.480469 390.742188 205.347656 391.054688 205.242188 C 391.363281 205.136719 391.683594 205.066406 392.007812 205.023438 C 392.332031 204.980469 392.660156 204.972656 392.984375 204.996094 C 393.3125 205.015625 393.632812 205.070312 393.949219 205.15625 C 394.265625 205.242188 394.570312 205.359375 394.863281 205.503906 C 395.15625 205.648438 395.433594 205.824219 395.691406 206.023438 C 395.953125 206.222656 396.1875 206.445312 396.40625 206.695312 C 396.621094 206.941406 396.808594 207.207031 396.972656 207.492188 Z M 396.972656 207.492188 " fill-opacity="1" fill-rule="nonzero"/><path fill="#000000" d="M 372.539062 224.660156 C 372.539062 224.660156 372.507812 224.660156 372.492188 224.660156 L 313.230469 222.890625 C 312.414062 222.867188 311.777344 222.1875 311.800781 221.371094 C 311.824219 220.578125 312.480469 219.941406 313.277344 219.941406 C 313.289062 219.941406 313.304688 219.941406 313.320312 219.941406 L 372.582031 221.710938 C 373.398438 221.734375 374.039062 222.414062 374.011719 223.230469 C 373.988281 224.027344 373.335938 224.660156 372.539062 224.660156 Z M 372.539062 224.660156 " fill-opacity="1" fill-rule="nonzero"/><path fill="#000000" d="M 372.140625 228.164062 C 374.894531 228.246094 377.195312 226.078125 377.277344 223.328125 C 377.359375 220.578125 375.191406 218.277344 372.441406 218.195312 C 369.6875 218.109375 367.386719 220.277344 367.304688 223.027344 C 367.21875 225.78125 369.386719 228.078125 372.140625 228.164062 Z M 372.140625 228.164062 " fill-opacity="1" fill-rule="nonzero"/><path fill="#000000" d="M 376.214844 201.820312 C 375.769531 201.820312 375.320312 201.617188 375.03125 201.226562 C 374.542969 200.574219 374.675781 199.648438 375.332031 199.164062 L 410.402344 173.003906 C 411.054688 172.519531 411.980469 172.652344 412.464844 173.304688 C 412.953125 173.957031 412.820312 174.882812 412.167969 175.367188 L 377.09375 201.527344 C 376.828125 201.722656 376.519531 201.820312 376.214844 201.820312 Z M 376.214844 201.820312 " fill-opacity="1" fill-rule="nonzero"/><g clip-path="url(#f421360016)"><path fill="#000000" d="M 414.070312 178.335938 C 416.277344 176.691406 416.734375 173.566406 415.082031 171.355469 C 413.433594 169.148438 410.308594 168.691406 408.09375 170.34375 C 405.886719 171.988281 405.429688 175.113281 407.082031 177.324219 C 408.730469 179.53125 411.855469 179.988281 414.070312 178.335938 Z M 414.070312 178.335938 " fill-opacity="1" fill-rule="nonzero"/></g><path fill="#000000" d="M 394.835938 211.761719 C 394.394531 211.761719 393.957031 211.566406 393.667969 211.1875 C 393.171875 210.542969 393.289062 209.613281 393.933594 209.117188 L 406.75 199.222656 C 407.394531 198.726562 408.320312 198.84375 408.816406 199.488281 C 409.316406 200.132812 409.195312 201.058594 408.554688 201.558594 L 395.738281 211.453125 C 395.464844 211.660156 395.152344 211.761719 394.835938 211.761719 Z M 394.835938 211.761719 " fill-opacity="1" fill-rule="nonzero"/><path fill="#000000" d="M 410.507812 204.488281 C 412.691406 202.804688 413.089844 199.675781 411.410156 197.492188 C 409.722656 195.3125 406.589844 194.914062 404.410156 196.59375 C 402.226562 198.28125 401.828125 201.410156 403.507812 203.589844 C 405.191406 205.773438 408.328125 206.171875 410.507812 204.488281 Z M 410.507812 204.488281 " fill-opacity="1" fill-rule="nonzero"/><path fill="#000000" d="M 404.621094 239.617188 C 404.398438 239.617188 404.171875 239.566406 403.960938 239.457031 L 373.859375 224.414062 C 373.132812 224.050781 372.839844 223.164062 373.203125 222.433594 C 373.566406 221.707031 374.449219 221.410156 375.183594 221.773438 L 405.285156 236.820312 C 406.011719 237.183594 406.304688 238.066406 405.941406 238.800781 C 405.683594 239.316406 405.160156 239.617188 404.621094 239.617188 Z M 404.621094 239.617188 " fill-opacity="1" fill-rule="nonzero"/><path fill="#000000" d="M 402.167969 242.488281 C 404.628906 243.722656 407.628906 242.722656 408.863281 240.257812 C 410.097656 237.796875 409.09375 234.800781 406.628906 233.566406 C 404.167969 232.335938 401.167969 233.335938 399.933594 235.796875 C 398.703125 238.257812 399.703125 241.257812 402.167969 242.488281 Z M 402.167969 242.488281 " fill-opacity="1" fill-rule="nonzero"/><path fill="#000000" d="M 267.949219 96.347656 L 266.589844 96.347656 C 265.773438 96.347656 265.113281 95.6875 265.113281 94.871094 C 265.113281 94.058594 265.773438 93.398438 266.589844 93.398438 L 266.730469 93.398438 L 320.414062 39.746094 C 320.988281 39.167969 321.921875 39.167969 322.5 39.746094 C 323.074219 40.320312 323.074219 41.253906 322.5 41.828125 L 267.957031 96.339844 Z M 267.949219 96.347656 " fill-opacity="1" fill-rule="nonzero"/><path fill="#000000" d="M 324.804688 44.492188 C 326.75 42.542969 326.75 39.386719 324.804688 37.433594 C 322.855469 35.488281 319.695312 35.488281 317.746094 37.433594 C 315.796875 39.378906 315.796875 42.539062 317.746094 44.492188 C 319.691406 46.4375 322.851562 46.4375 324.804688 44.492188 Z M 324.804688 44.492188 " fill-opacity="1" fill-rule="nonzero"/><path fill="#000000" d="M 274.871094 111.402344 C 274.492188 111.402344 274.117188 111.257812 273.832031 110.96875 C 273.253906 110.394531 273.253906 109.460938 273.832031 108.886719 L 306.25 76.480469 C 306.828125 75.90625 307.761719 75.90625 308.335938 76.480469 C 308.910156 77.054688 308.910156 77.988281 308.335938 78.566406 L 275.914062 110.96875 C 275.625 111.257812 275.25 111.402344 274.871094 111.402344 Z M 274.871094 111.402344 " fill-opacity="1" fill-rule="nonzero"/><path fill="#000000" d="M 310.644531 81.222656 C 312.59375 79.277344 312.59375 76.117188 310.644531 74.167969 C 308.699219 72.214844 305.539062 72.222656 303.585938 74.167969 C 301.636719 76.113281 301.640625 79.273438 303.585938 81.222656 C 305.535156 83.171875 308.695312 83.167969 310.644531 81.222656 Z M 310.644531 81.222656 " fill-opacity="1" fill-rule="nonzero"/><path fill="#000000" d="M 250.015625 94.085938 C 249.609375 94.085938 249.195312 93.914062 248.90625 93.585938 C 248.371094 92.972656 248.433594 92.042969 249.042969 91.507812 L 255.03125 86.269531 L 281.769531 59.546875 C 282.34375 58.96875 283.277344 58.96875 283.855469 59.546875 C 284.429688 60.121094 284.429688 61.054688 283.855469 61.628906 L 257.011719 88.449219 L 250.984375 93.71875 C 250.707031 93.964844 250.363281 94.082031 250.015625 94.082031 Z M 250.015625 94.085938 " fill-opacity="1" fill-rule="nonzero"/><path fill="#000000" d="M 286.164062 64.292969 C 288.109375 62.347656 288.109375 59.1875 286.164062 57.234375 C 284.21875 55.285156 281.058594 55.289062 279.105469 57.234375 C 277.152344 59.179688 277.160156 62.339844 279.105469 64.292969 C 281.050781 66.242188 284.210938 66.238281 286.164062 64.292969 Z M 286.164062 64.292969 " fill-opacity="1" fill-rule="nonzero"/><path fill="#000000" d="M 283.9375 59.726562 C 283.121094 59.726562 282.460938 59.070312 282.460938 58.253906 L 282.460938 34.347656 C 282.460938 33.535156 283.121094 32.875 283.9375 32.875 C 284.753906 32.875 285.414062 33.535156 285.414062 34.347656 L 285.414062 58.253906 C 285.414062 59.070312 284.753906 59.726562 283.9375 59.726562 Z M 283.9375 59.726562 " fill-opacity="1" fill-rule="nonzero"/><path fill="#000000" d="M 288.925781 34.601562 C 288.925781 31.84375 286.691406 29.613281 283.9375 29.613281 C 281.183594 29.613281 278.949219 31.847656 278.949219 34.601562 C 278.949219 37.351562 281.183594 39.585938 283.9375 39.585938 C 286.691406 39.585938 288.925781 37.351562 288.925781 34.601562 Z M 288.925781 34.601562 " fill-opacity="1" fill-rule="nonzero"/><path fill="#000000" d="M 322.253906 38.609375 C 321.4375 38.609375 320.777344 37.949219 320.777344 37.136719 L 320.777344 19.796875 C 320.777344 18.980469 321.4375 18.320312 322.253906 18.320312 C 323.070312 18.320312 323.726562 18.980469 323.726562 19.796875 L 323.726562 37.136719 C 323.726562 37.949219 323.070312 38.609375 322.253906 38.609375 Z M 322.253906 38.609375 " fill-opacity="1" fill-rule="nonzero"/><path fill="#000000" d="M 327.242188 20.042969 C 327.242188 17.285156 325.003906 15.054688 322.253906 15.054688 C 319.5 15.054688 317.261719 17.289062 317.261719 20.042969 C 317.261719 22.792969 319.5 25.027344 322.253906 25.027344 C 325.003906 25.027344 327.242188 22.792969 327.242188 20.042969 Z M 327.242188 20.042969 " fill-opacity="1" fill-rule="nonzero"/><path fill="#000000" d="M 317.316406 86.488281 C 316.9375 86.488281 316.558594 86.347656 316.273438 86.058594 L 308.742188 78.53125 C 308.167969 77.957031 308.167969 77.023438 308.742188 76.445312 C 309.320312 75.871094 310.253906 75.871094 310.828125 76.445312 L 318.359375 83.972656 C 318.933594 84.550781 318.933594 85.484375 318.359375 86.058594 C 318.070312 86.347656 317.695312 86.488281 317.316406 86.488281 Z M 317.316406 86.488281 " fill-opacity="1" fill-rule="nonzero"/><path fill="#000000" d="M 313.609375 88.367188 C 315.558594 90.3125 318.71875 90.3125 320.667969 88.367188 C 322.617188 86.421875 322.617188 83.261719 320.667969 81.3125 C 318.722656 79.367188 315.5625 79.367188 313.609375 81.3125 C 311.664062 83.257812 311.664062 86.417969 313.609375 88.367188 Z M 313.609375 88.367188 " fill-opacity="1" fill-rule="nonzero"/><path fill="#000000" d="M 195.042969 94.839844 C 194.226562 94.839844 193.566406 94.179688 193.566406 93.363281 L 193.566406 33.351562 C 193.566406 32.535156 194.226562 31.878906 195.042969 31.878906 C 195.859375 31.878906 196.515625 32.535156 196.515625 33.351562 L 196.515625 93.363281 C 196.515625 94.179688 195.859375 94.839844 195.042969 94.839844 Z M 195.042969 94.839844 " fill-opacity="1" fill-rule="nonzero"/><path fill="#000000" d="M 200.03125 33.605469 C 200.03125 30.851562 197.792969 28.621094 195.042969 28.621094 C 192.289062 28.621094 190.050781 30.855469 190.050781 33.605469 C 190.050781 36.359375 192.289062 38.59375 195.042969 38.59375 C 197.792969 38.59375 200.03125 36.359375 200.03125 33.605469 Z M 200.03125 33.605469 " fill-opacity="1" fill-rule="nonzero"/><path fill="#000000" d="M 181.488281 94.085938 C 180.671875 94.085938 180.011719 93.429688 180.011719 92.613281 L 180.011719 56.699219 C 180.011719 55.882812 180.671875 55.226562 181.488281 55.226562 C 182.304688 55.226562 182.964844 55.882812 182.964844 56.699219 L 182.964844 92.613281 C 182.964844 93.429688 182.304688 94.085938 181.488281 94.085938 Z M 181.488281 94.085938 " fill-opacity="1" fill-rule="nonzero"/><path fill="#000000" d="M 186.476562 56.949219 C 186.476562 54.195312 184.242188 51.964844 181.488281 51.964844 C 178.734375 51.964844 176.5 54.199219 176.5 56.949219 C 176.5 59.703125 178.734375 61.9375 181.488281 61.9375 C 184.242188 61.9375 186.476562 59.703125 186.476562 56.949219 Z M 186.476562 56.949219 " fill-opacity="1" fill-rule="nonzero"/><path fill="#000000" d="M 206.339844 93.335938 C 205.523438 93.335938 204.863281 92.675781 204.863281 91.859375 L 204.863281 24.109375 L 223.941406 5.039062 C 224.519531 4.464844 225.453125 4.464844 226.027344 5.039062 C 226.601562 5.617188 226.601562 6.550781 226.027344 7.125 L 207.8125 25.328125 L 207.8125 91.859375 C 207.8125 92.675781 207.15625 93.335938 206.339844 93.335938 Z M 206.339844 93.335938 " fill-opacity="1" fill-rule="nonzero"/><path fill="#000000" d="M 228.335938 9.789062 C 230.285156 7.839844 230.285156 4.683594 228.335938 2.730469 C 226.390625 0.785156 223.230469 0.785156 221.277344 2.730469 C 219.332031 4.675781 219.332031 7.835938 221.277344 9.789062 C 223.226562 11.734375 226.386719 11.734375 228.335938 9.789062 Z M 228.335938 9.789062 " fill-opacity="1" fill-rule="nonzero"/><path fill="#000000" d="M 194.539062 31.082031 C 194.160156 31.082031 193.785156 30.9375 193.5 30.648438 L 178.617188 15.777344 C 178.042969 15.203125 178.042969 14.269531 178.617188 13.695312 C 179.191406 13.117188 180.125 13.117188 180.703125 13.695312 L 195.582031 28.566406 C 196.15625 29.140625 196.15625 30.074219 195.582031 30.648438 C 195.292969 30.9375 194.917969 31.082031 194.539062 31.082031 Z M 194.539062 31.082031 " fill-opacity="1" fill-rule="nonzero"/><path fill="#000000" d="M 183.367188 11.382812 C 181.417969 9.4375 178.257812 9.4375 176.308594 11.382812 C 174.359375 13.328125 174.359375 16.488281 176.308594 18.441406 C 178.253906 20.386719 181.414062 20.386719 183.367188 18.441406 C 185.3125 16.492188 185.3125 13.335938 183.367188 11.382812 Z M 183.367188 11.382812 " fill-opacity="1" fill-rule="nonzero"/><path fill="#000000" d="M 179.753906 55.898438 C 179.375 55.898438 178.996094 55.757812 178.710938 55.46875 L 169 45.761719 C 168.425781 45.1875 168.425781 44.253906 169 43.679688 C 169.578125 43.105469 170.511719 43.105469 171.085938 43.679688 L 180.796875 53.382812 C 181.371094 53.957031 181.371094 54.890625 180.796875 55.46875 C 180.503906 55.757812 180.132812 55.898438 179.753906 55.898438 Z M 179.753906 55.898438 " fill-opacity="1" fill-rule="nonzero"/><path fill="#000000" d="M 173.746094 41.371094 C 171.800781 39.425781 168.636719 39.425781 166.6875 41.371094 C 164.738281 43.316406 164.738281 46.476562 166.6875 48.425781 C 168.632812 50.371094 171.792969 50.371094 173.746094 48.425781 C 175.691406 46.480469 175.691406 43.320312 173.746094 41.371094 Z M 173.746094 41.371094 " fill-opacity="1" fill-rule="nonzero"/><path fill="#000000" d="M 85.84375 198.710938 L 24.300781 198.710938 C 23.484375 198.710938 22.824219 198.054688 22.824219 197.238281 C 22.824219 196.421875 23.484375 195.765625 24.300781 195.765625 L 85.847656 195.765625 C 86.664062 195.765625 87.324219 196.421875 87.324219 197.238281 C 87.324219 198.054688 86.664062 198.710938 85.847656 198.710938 Z M 85.84375 198.710938 " fill-opacity="1" fill-rule="nonzero"/><path fill="#000000" d="M 24.546875 192.25 C 21.789062 192.25 19.554688 194.484375 19.554688 197.238281 C 19.554688 199.988281 21.792969 202.226562 24.546875 202.226562 C 27.296875 202.226562 29.535156 199.988281 29.535156 197.238281 C 29.535156 194.484375 27.296875 192.25 24.546875 192.25 Z M 24.546875 192.25 " fill-opacity="1" fill-rule="nonzero"/><path fill="#000000" d="M 92.621094 211.507812 L 38.039062 211.507812 C 37.222656 211.507812 36.566406 210.847656 36.566406 210.03125 C 36.566406 209.214844 37.222656 208.558594 38.039062 208.558594 L 92.621094 208.558594 C 93.4375 208.558594 94.097656 209.214844 94.097656 210.03125 C 94.097656 210.847656 93.4375 211.507812 92.621094 211.507812 Z M 92.621094 211.507812 " fill-opacity="1" fill-rule="nonzero"/><path fill="#000000" d="M 38.289062 205.046875 C 35.53125 205.046875 33.300781 207.28125 33.300781 210.03125 C 33.300781 212.785156 35.539062 215.019531 38.289062 215.019531 C 41.042969 215.019531 43.28125 212.785156 43.28125 210.03125 C 43.28125 207.28125 41.042969 205.046875 38.289062 205.046875 Z M 38.289062 205.046875 " fill-opacity="1" fill-rule="nonzero"/><path fill="#000000" d="M 93.375 186.667969 L 34.820312 186.667969 C 34.003906 186.667969 33.34375 186.011719 33.34375 185.195312 C 33.34375 184.378906 34.003906 183.722656 34.820312 183.722656 L 93.378906 183.722656 C 94.195312 183.722656 94.855469 184.378906 94.855469 185.195312 C 94.855469 186.011719 94.195312 186.667969 93.378906 186.667969 Z M 93.375 186.667969 " fill-opacity="1" fill-rule="nonzero"/><path fill="#000000" d="M 35.066406 180.207031 C 32.308594 180.207031 30.074219 182.445312 30.074219 185.195312 C 30.074219 187.945312 32.3125 190.183594 35.066406 190.183594 C 37.820312 190.183594 40.054688 187.945312 40.054688 185.195312 C 40.054688 182.445312 37.820312 180.207031 35.066406 180.207031 Z M 35.066406 180.207031 " fill-opacity="1" fill-rule="nonzero"/><path fill="#000000" d="M 93.132812 311.105469 C 92.753906 311.105469 92.375 310.964844 92.089844 310.671875 C 91.515625 310.097656 91.515625 309.164062 92.089844 308.589844 L 129.988281 270.710938 C 130.5625 270.136719 131.496094 270.136719 132.074219 270.710938 C 132.648438 271.289062 132.648438 272.222656 132.074219 272.796875 L 94.175781 310.671875 C 93.886719 310.964844 93.511719 311.105469 93.132812 311.105469 Z M 93.132812 311.105469 " fill-opacity="1" fill-rule="nonzero"/><path fill="#000000" d="M 89.78125 305.933594 C 87.832031 307.878906 87.832031 311.035156 89.78125 312.988281 C 91.726562 314.933594 94.886719 314.933594 96.839844 312.988281 C 98.792969 311.042969 98.785156 307.882812 96.839844 305.933594 C 94.894531 303.984375 91.730469 303.984375 89.78125 305.933594 Z M 89.78125 305.933594 " fill-opacity="1" fill-rule="nonzero"/><path fill="#000000" d="M 92.582031 328.964844 C 92.203125 328.964844 91.824219 328.824219 91.539062 328.535156 C 90.964844 327.957031 90.964844 327.023438 91.539062 326.449219 L 135.257812 282.753906 C 135.832031 282.179688 136.769531 282.179688 137.34375 282.753906 C 137.917969 283.332031 137.917969 284.261719 137.34375 284.839844 L 93.625 328.535156 C 93.335938 328.824219 92.960938 328.964844 92.582031 328.964844 Z M 92.582031 328.964844 " fill-opacity="1" fill-rule="nonzero"/><path fill="#000000" d="M 89.234375 323.785156 C 87.289062 325.734375 87.289062 328.890625 89.234375 330.84375 C 91.183594 332.792969 94.34375 332.789062 96.292969 330.84375 C 98.246094 328.898438 98.242188 325.738281 96.292969 323.785156 C 94.347656 321.835938 91.1875 321.839844 89.234375 323.785156 Z M 89.234375 323.785156 " fill-opacity="1" fill-rule="nonzero"/><path fill="#000000" d="M 122.683594 314.6875 C 122.304688 314.6875 121.925781 314.542969 121.640625 314.253906 C 121.066406 313.679688 121.066406 312.746094 121.640625 312.171875 L 141.285156 292.539062 C 141.859375 291.964844 142.792969 291.964844 143.371094 292.539062 C 143.945312 293.113281 143.945312 294.046875 143.371094 294.621094 L 123.726562 314.253906 C 123.433594 314.542969 123.0625 314.6875 122.683594 314.6875 Z M 122.683594 314.6875 " fill-opacity="1" fill-rule="nonzero"/><path fill="#000000" d="M 119.332031 309.511719 C 117.382812 311.460938 117.382812 314.617188 119.332031 316.570312 C 121.277344 318.515625 124.4375 318.515625 126.390625 316.570312 C 128.339844 314.625 128.335938 311.464844 126.390625 309.511719 C 124.441406 307.566406 121.28125 307.566406 119.332031 309.511719 Z M 119.332031 309.511719 " fill-opacity="1" fill-rule="nonzero"/><path fill="#000000" d="M 226.671875 347.996094 C 225.855469 347.996094 225.195312 347.335938 225.195312 346.519531 L 225.195312 302.613281 C 225.195312 301.800781 225.855469 301.140625 226.671875 301.140625 C 227.488281 301.140625 228.144531 301.800781 228.144531 302.613281 L 228.144531 346.519531 C 228.144531 347.335938 227.488281 347.996094 226.671875 347.996094 Z M 226.671875 347.996094 " fill-opacity="1" fill-rule="nonzero"/><path fill="#000000" d="M 221.679688 346.269531 C 221.679688 349.027344 223.917969 351.257812 226.671875 351.257812 C 229.425781 351.257812 231.660156 349.023438 231.660156 346.269531 C 231.660156 343.519531 229.425781 341.285156 226.671875 341.285156 C 223.917969 341.285156 221.679688 343.519531 221.679688 346.269531 Z M 221.679688 346.269531 " fill-opacity="1" fill-rule="nonzero"/><path fill="#000000" d="M 234.203125 336.234375 C 233.386719 336.234375 232.726562 335.574219 232.726562 334.757812 L 232.726562 302.613281 C 232.726562 301.800781 233.386719 301.140625 234.203125 301.140625 C 235.019531 301.140625 235.675781 301.800781 235.675781 302.613281 L 235.675781 334.757812 C 235.675781 335.574219 235.019531 336.234375 234.203125 336.234375 Z M 234.203125 336.234375 " fill-opacity="1" fill-rule="nonzero"/><path fill="#000000" d="M 236.824219 330.285156 C 237.105469 330.457031 237.363281 330.65625 237.605469 330.878906 C 237.84375 331.101562 238.058594 331.347656 238.25 331.613281 C 238.441406 331.878906 238.605469 332.160156 238.742188 332.457031 C 238.878906 332.753906 238.984375 333.0625 239.058594 333.382812 C 239.132812 333.699219 239.175781 334.023438 239.1875 334.351562 C 239.199219 334.679688 239.179688 335.003906 239.128906 335.328125 C 239.074219 335.648438 238.992188 335.964844 238.878906 336.273438 C 238.761719 336.578125 238.621094 336.871094 238.445312 337.148438 C 238.273438 337.429688 238.078125 337.6875 237.855469 337.925781 C 237.628906 338.167969 237.386719 338.382812 237.121094 338.574219 C 236.855469 338.765625 236.574219 338.929688 236.273438 339.066406 C 235.976562 339.199219 235.667969 339.304688 235.347656 339.382812 C 235.03125 339.457031 234.707031 339.5 234.378906 339.511719 C 234.050781 339.523438 233.726562 339.503906 233.402344 339.449219 C 233.078125 339.398438 232.765625 339.316406 232.457031 339.199219 C 232.152344 339.085938 231.859375 338.941406 231.578125 338.769531 C 231.300781 338.597656 231.042969 338.398438 230.800781 338.175781 C 230.5625 337.953125 230.347656 337.710938 230.15625 337.445312 C 229.964844 337.179688 229.800781 336.894531 229.664062 336.597656 C 229.527344 336.300781 229.421875 335.992188 229.347656 335.671875 C 229.269531 335.355469 229.226562 335.03125 229.214844 334.703125 C 229.203125 334.378906 229.226562 334.050781 229.277344 333.730469 C 229.328125 333.40625 229.414062 333.089844 229.527344 332.785156 C 229.644531 332.476562 229.785156 332.183594 229.957031 331.90625 C 230.128906 331.628906 230.328125 331.367188 230.550781 331.128906 C 230.773438 330.890625 231.019531 330.671875 231.285156 330.480469 C 231.550781 330.289062 231.832031 330.128906 232.132812 329.992188 C 232.429688 329.855469 232.738281 329.75 233.054688 329.675781 C 233.375 329.597656 233.699219 329.554688 234.027344 329.542969 C 234.351562 329.53125 234.679688 329.554688 235.003906 329.605469 C 235.324219 329.65625 235.640625 329.742188 235.949219 329.855469 C 236.253906 329.96875 236.546875 330.113281 236.824219 330.285156 Z M 236.824219 330.285156 " fill-opacity="1" fill-rule="nonzero"/><path fill="#000000" d="M 243.238281 366.203125 C 242.421875 366.203125 241.761719 365.546875 241.761719 364.730469 L 241.761719 301.859375 C 241.761719 301.042969 242.421875 300.382812 243.238281 300.382812 C 244.054688 300.382812 244.710938 301.042969 244.710938 301.859375 L 244.710938 364.730469 C 244.710938 365.546875 244.054688 366.203125 243.238281 366.203125 Z M 243.238281 366.203125 " fill-opacity="1" fill-rule="nonzero"/><path fill="#000000" d="M 247.851562 362.570312 C 247.976562 362.875 248.074219 363.1875 248.136719 363.507812 C 248.199219 363.828125 248.230469 364.152344 248.230469 364.480469 C 248.230469 364.808594 248.199219 365.132812 248.136719 365.453125 C 248.074219 365.773438 247.976562 366.085938 247.851562 366.390625 C 247.726562 366.691406 247.574219 366.980469 247.390625 367.25 C 247.210938 367.523438 247.003906 367.777344 246.769531 368.007812 C 246.539062 368.238281 246.289062 368.445312 246.015625 368.628906 C 245.742188 368.808594 245.453125 368.960938 245.152344 369.089844 C 244.847656 369.214844 244.539062 369.308594 244.214844 369.371094 C 243.894531 369.4375 243.570312 369.46875 243.242188 369.46875 C 242.914062 369.46875 242.589844 369.4375 242.269531 369.371094 C 241.949219 369.308594 241.636719 369.214844 241.332031 369.089844 C 241.03125 368.960938 240.742188 368.808594 240.46875 368.628906 C 240.199219 368.445312 239.945312 368.238281 239.714844 368.007812 C 239.484375 367.777344 239.277344 367.523438 239.09375 367.25 C 238.910156 366.980469 238.757812 366.691406 238.632812 366.390625 C 238.507812 366.085938 238.414062 365.773438 238.347656 365.453125 C 238.285156 365.132812 238.253906 364.808594 238.253906 364.480469 C 238.253906 364.152344 238.285156 363.828125 238.347656 363.507812 C 238.414062 363.1875 238.507812 362.875 238.632812 362.570312 C 238.757812 362.269531 238.910156 361.980469 239.09375 361.710938 C 239.277344 361.4375 239.484375 361.1875 239.714844 360.953125 C 239.945312 360.722656 240.199219 360.515625 240.46875 360.332031 C 240.742188 360.152344 241.03125 360 241.332031 359.875 C 241.636719 359.746094 241.949219 359.652344 242.269531 359.589844 C 242.589844 359.527344 242.914062 359.492188 243.242188 359.492188 C 243.570312 359.492188 243.894531 359.527344 244.214844 359.589844 C 244.539062 359.652344 244.847656 359.746094 245.152344 359.875 C 245.453125 360 245.742188 360.152344 246.015625 360.332031 C 246.285156 360.515625 246.539062 360.722656 246.769531 360.953125 C 247.003906 361.1875 247.210938 361.4375 247.390625 361.710938 C 247.574219 361.980469 247.726562 362.269531 247.851562 362.570312 Z M 247.851562 362.570312 " fill-opacity="1" fill-rule="nonzero"/><path fill="#000000" d="M 338.105469 325.890625 C 337.726562 325.890625 337.351562 325.746094 337.066406 325.457031 L 282.867188 271.289062 C 282.289062 270.710938 282.289062 269.777344 282.867188 269.203125 C 283.441406 268.628906 284.375 268.628906 284.949219 269.203125 L 339.148438 323.375 C 339.722656 323.949219 339.722656 324.882812 339.148438 325.457031 C 338.859375 325.746094 338.484375 325.890625 338.105469 325.890625 Z M 338.105469 325.890625 " fill-opacity="1" fill-rule="nonzero"/><path fill="#000000" d="M 334.398438 327.765625 C 336.347656 329.710938 339.507812 329.710938 341.460938 327.765625 C 343.410156 325.820312 343.40625 322.660156 341.460938 320.710938 C 339.511719 318.761719 336.351562 318.765625 334.398438 320.710938 C 332.449219 322.65625 332.453125 325.816406 334.398438 327.765625 Z M 334.398438 327.765625 " fill-opacity="1" fill-rule="nonzero"/><path fill="#000000" d="M 334.867188 312.117188 C 334.488281 312.117188 334.109375 311.976562 333.824219 311.683594 L 287.382812 265.269531 C 286.808594 264.695312 286.808594 263.761719 287.382812 263.183594 C 287.957031 262.609375 288.894531 262.609375 289.46875 263.183594 L 335.910156 309.601562 C 336.484375 310.175781 336.484375 311.109375 335.910156 311.683594 C 335.621094 311.976562 335.246094 312.117188 334.867188 312.117188 Z M 334.867188 312.117188 " fill-opacity="1" fill-rule="nonzero"/><path fill="#000000" d="M 331.164062 313.996094 C 333.113281 315.941406 336.273438 315.941406 338.226562 313.996094 C 340.175781 312.050781 340.171875 308.890625 338.226562 306.9375 C 336.277344 304.988281 333.117188 304.992188 331.164062 306.9375 C 329.214844 308.882812 329.21875 312.042969 331.164062 313.996094 Z M 331.164062 313.996094 " fill-opacity="1" fill-rule="nonzero"/><path fill="#000000" d="M 325.867188 286.5625 C 325.488281 286.5625 325.109375 286.421875 324.824219 286.128906 L 291.902344 253.226562 C 291.328125 252.652344 291.328125 251.71875 291.902344 251.140625 C 292.476562 250.566406 293.410156 250.566406 293.984375 251.140625 L 326.90625 284.046875 C 327.484375 284.621094 327.484375 285.554688 326.90625 286.128906 C 326.617188 286.421875 326.246094 286.5625 325.867188 286.5625 Z M 325.867188 286.5625 " fill-opacity="1" fill-rule="nonzero"/><path fill="#000000" d="M 322.160156 288.441406 C 324.105469 290.386719 327.265625 290.386719 329.21875 288.441406 C 331.171875 286.496094 331.164062 283.335938 329.21875 281.382812 C 327.273438 279.433594 324.109375 279.4375 322.160156 281.382812 C 320.207031 283.332031 320.210938 286.488281 322.160156 288.441406 Z M 322.160156 288.441406 " fill-opacity="1" fill-rule="nonzero"/><path fill="#000000" d="M 114.464844 146.027344 C 114.085938 146.027344 113.707031 145.882812 113.421875 145.59375 L 64.050781 96.25 C 63.476562 95.671875 63.476562 94.738281 64.050781 94.164062 C 64.625 93.589844 65.558594 93.589844 66.132812 94.164062 L 115.507812 143.511719 C 116.082031 144.085938 116.082031 145.019531 115.507812 145.59375 C 115.214844 145.882812 114.84375 146.027344 114.464844 146.027344 Z M 114.464844 146.027344 " fill-opacity="1" fill-rule="nonzero"/><path fill="#000000" d="M 68.800781 91.855469 C 66.851562 89.910156 63.691406 89.910156 61.738281 91.855469 C 59.792969 93.800781 59.792969 96.960938 61.738281 98.910156 C 63.6875 100.855469 66.847656 100.855469 68.800781 98.910156 C 70.746094 96.964844 70.746094 93.804688 68.800781 91.855469 Z M 68.800781 91.855469 " fill-opacity="1" fill-rule="nonzero"/><path fill="#000000" d="M 120.484375 139.25 C 120.105469 139.25 119.730469 139.109375 119.445312 138.816406 L 71.5625 90.960938 C 70.988281 90.386719 70.988281 89.453125 71.5625 88.878906 C 72.136719 88.304688 73.070312 88.304688 73.644531 88.878906 L 121.527344 136.734375 C 122.101562 137.308594 122.101562 138.242188 121.527344 138.816406 C 121.238281 139.109375 120.863281 139.25 120.484375 139.25 Z M 120.484375 139.25 " fill-opacity="1" fill-rule="nonzero"/><path fill="#000000" d="M 76.3125 86.570312 C 74.363281 84.625 71.203125 84.625 69.25 86.570312 C 67.304688 88.515625 67.304688 91.671875 69.25 93.625 C 71.199219 95.570312 74.359375 95.570312 76.3125 93.625 C 78.257812 91.679688 78.257812 88.519531 76.3125 86.570312 Z M 76.3125 86.570312 " fill-opacity="1" fill-rule="nonzero"/><path fill="#000000" d="M 126.511719 133.226562 C 126.132812 133.226562 125.753906 133.082031 125.46875 132.792969 L 93.886719 101.226562 C 93.308594 100.652344 93.308594 99.71875 93.886719 99.140625 C 94.460938 98.566406 95.394531 98.566406 95.96875 99.140625 L 127.554688 130.710938 C 128.128906 131.285156 128.128906 132.21875 127.554688 132.792969 C 127.265625 133.082031 126.890625 133.226562 126.511719 133.226562 Z M 126.511719 133.226562 " fill-opacity="1" fill-rule="nonzero"/><path fill="#000000" d="M 98.632812 96.835938 C 96.6875 94.890625 93.527344 94.890625 91.574219 96.835938 C 89.625 98.785156 89.628906 101.941406 91.574219 103.894531 C 93.523438 105.839844 96.683594 105.839844 98.632812 103.894531 C 100.585938 101.949219 100.582031 98.789062 98.632812 96.835938 Z M 98.632812 96.835938 " fill-opacity="1" fill-rule="nonzero"/><path fill="#000000" d="M 93.816406 99.109375 C 93.59375 99.109375 93.371094 99.058594 93.15625 98.949219 C 92.429688 98.585938 92.136719 97.703125 92.5 96.976562 L 99.917969 82.148438 C 100.28125 81.417969 101.167969 81.125 101.894531 81.488281 C 102.621094 81.851562 102.917969 82.734375 102.550781 83.464844 L 95.132812 98.292969 C 94.875 98.808594 94.359375 99.109375 93.8125 99.109375 Z M 93.816406 99.109375 " fill-opacity="1" fill-rule="nonzero"/><path fill="#000000" d="M 105.585938 85.257812 C 106.820312 82.796875 105.816406 79.796875 103.355469 78.566406 C 100.890625 77.332031 97.890625 78.332031 96.65625 80.796875 C 95.425781 83.257812 96.425781 86.253906 98.890625 87.488281 C 101.351562 88.722656 104.351562 87.71875 105.585938 85.257812 Z M 105.585938 85.257812 " fill-opacity="1" fill-rule="nonzero"/><path fill="#000000" d="M 71.742188 88.097656 C 71.527344 88.097656 71.304688 88.046875 71.101562 87.949219 C 70.367188 87.589844 70.0625 86.710938 70.421875 85.980469 L 78.386719 69.660156 C 78.746094 68.929688 79.625 68.625 80.355469 68.984375 C 81.089844 69.34375 81.394531 70.222656 81.035156 70.953125 L 73.070312 87.269531 C 72.816406 87.796875 72.289062 88.101562 71.742188 88.101562 Z M 71.742188 88.097656 " fill-opacity="1" fill-rule="nonzero"/><path fill="#000000" d="M 84.082031 72.71875 C 85.292969 70.242188 84.265625 67.253906 81.789062 66.050781 C 79.308594 64.839844 76.320312 65.867188 75.117188 68.34375 C 73.90625 70.820312 74.933594 73.808594 77.410156 75.011719 C 79.890625 76.214844 82.878906 75.195312 84.082031 72.71875 Z M 84.082031 72.71875 " fill-opacity="1" fill-rule="nonzero"/><path fill="#000000" d="M 60.730469 96.578125 C 60.679688 96.578125 60.617188 96.578125 60.566406 96.566406 L 38.664062 94.089844 C 37.851562 93.996094 37.273438 93.269531 37.367188 92.460938 C 37.460938 91.648438 38.1875 91.070312 39 91.164062 L 60.898438 93.640625 C 61.710938 93.734375 62.289062 94.460938 62.195312 95.269531 C 62.113281 96.023438 61.472656 96.578125 60.730469 96.578125 Z M 60.730469 96.578125 " fill-opacity="1" fill-rule="nonzero"/><path fill="#000000" d="M 39.640625 87.695312 C 36.90625 87.382812 34.429688 89.351562 34.121094 92.089844 C 33.8125 94.828125 35.777344 97.300781 38.523438 97.609375 C 41.261719 97.917969 43.734375 95.953125 44.042969 93.210938 C 44.351562 90.46875 42.386719 88.003906 39.648438 87.695312 Z M 39.640625 87.695312 " fill-opacity="1" fill-rule="nonzero"/><path fill="#000000" d="M 32.574219 186.917969 C 32.183594 186.917969 31.792969 186.765625 31.5 186.457031 C 30.941406 185.867188 30.964844 184.933594 31.554688 184.375 L 47.695312 169.070312 C 48.285156 168.507812 49.21875 168.535156 49.777344 169.125 C 50.339844 169.714844 50.316406 170.648438 49.726562 171.207031 L 33.585938 186.511719 C 33.300781 186.78125 32.9375 186.914062 32.574219 186.914062 Z M 32.574219 186.917969 " fill-opacity="1" fill-rule="nonzero"/><path fill="#000000" d="M 51.972656 173.929688 C 53.972656 172.03125 54.054688 168.878906 52.160156 166.878906 C 50.261719 164.878906 47.105469 164.792969 45.105469 166.691406 C 43.101562 168.585938 43.019531 171.742188 44.917969 173.742188 C 46.816406 175.742188 49.972656 175.824219 51.972656 173.929688 Z M 51.972656 173.929688 " fill-opacity="1" fill-rule="nonzero"/><path fill="#000000" d="M 5.464844 209.496094 C 4.976562 209.496094 4.492188 209.25 4.214844 208.804688 C 3.78125 208.109375 3.992188 207.203125 4.679688 206.773438 L 20.742188 196.742188 C 21.429688 196.308594 22.34375 196.519531 22.769531 197.207031 C 23.199219 197.894531 22.992188 198.808594 22.304688 199.238281 L 6.242188 209.269531 C 6.003906 209.421875 5.730469 209.496094 5.460938 209.496094 Z M 5.464844 209.496094 " fill-opacity="1" fill-rule="nonzero"/><path fill="#000000" d="M 3.03125 203.660156 C 0.699219 205.117188 -0.015625 208.195312 1.445312 210.535156 C 2.90625 212.871094 5.984375 213.578125 8.324219 212.121094 C 10.65625 210.660156 11.371094 207.585938 9.910156 205.246094 C 8.449219 202.90625 5.375 202.199219 3.03125 203.660156 Z M 3.03125 203.660156 " fill-opacity="1" fill-rule="nonzero"/><path fill="#000000" d="M 50.152344 223.917969 C 49.800781 223.917969 49.441406 223.789062 49.160156 223.53125 L 35.085938 210.671875 C 34.484375 210.121094 34.441406 209.1875 34.992188 208.585938 C 35.542969 207.988281 36.476562 207.945312 37.078125 208.496094 L 51.152344 221.351562 C 51.75 221.902344 51.792969 222.835938 51.246094 223.4375 C 50.953125 223.753906 50.554688 223.917969 50.15625 223.917969 Z M 50.152344 223.917969 " fill-opacity="1" fill-rule="nonzero"/><path fill="#000000" d="M 46.597656 225.957031 C 48.632812 227.8125 51.789062 227.675781 53.648438 225.640625 C 55.507812 223.609375 55.363281 220.453125 53.332031 218.597656 C 51.296875 216.738281 48.140625 216.882812 46.285156 218.910156 C 44.425781 220.941406 44.566406 224.097656 46.597656 225.957031 Z M 46.597656 225.957031 " fill-opacity="1" fill-rule="nonzero"/><path fill="#000000" d="M 92.269531 311.90625 C 91.59375 311.90625 90.984375 311.441406 90.832031 310.757812 L 87.355469 295.308594 C 87.179688 294.511719 87.675781 293.726562 88.472656 293.550781 C 89.269531 293.375 90.054688 293.871094 90.238281 294.664062 L 93.714844 310.113281 C 93.890625 310.910156 93.394531 311.695312 92.597656 311.871094 C 92.488281 311.898438 92.382812 311.90625 92.273438 311.90625 Z M 92.269531 311.90625 " fill-opacity="1" fill-rule="nonzero"/><path fill="#000000" d="M 93.714844 294.132812 C 93.109375 291.445312 90.4375 289.757812 87.75 290.359375 C 85.0625 290.964844 83.371094 293.632812 83.976562 296.320312 C 84.578125 299.007812 87.25 300.699219 89.9375 300.09375 C 92.628906 299.488281 94.316406 296.820312 93.714844 294.132812 Z M 93.714844 294.132812 " fill-opacity="1" fill-rule="nonzero"/><path fill="#000000" d="M 102.886719 336.503906 C 102.695312 336.503906 102.5 336.464844 102.304688 336.386719 L 90.847656 331.476562 C 90.101562 331.15625 89.75 330.289062 90.070312 329.539062 C 90.390625 328.792969 91.253906 328.445312 92.007812 328.765625 L 103.464844 333.671875 C 104.214844 333.992188 104.5625 334.863281 104.242188 335.609375 C 104.003906 336.167969 103.460938 336.503906 102.886719 336.503906 Z M 102.886719 336.503906 " fill-opacity="1" fill-rule="nonzero"/><path fill="#000000" d="M 100.695312 339.515625 C 103.226562 340.601562 106.160156 339.425781 107.246094 336.894531 C 108.332031 334.367188 107.160156 331.433594 104.625 330.347656 C 102.09375 329.261719 99.160156 330.433594 98.074219 332.964844 C 96.988281 335.496094 98.164062 338.429688 100.695312 339.515625 Z M 100.695312 339.515625 " fill-opacity="1" fill-rule="nonzero"/><path fill="#000000" d="M 136.046875 329.058594 C 135.667969 329.058594 135.289062 328.917969 135.003906 328.625 L 120.28125 313.910156 C 119.703125 313.335938 119.703125 312.402344 120.28125 311.828125 C 120.855469 311.253906 121.789062 311.253906 122.363281 311.828125 L 137.085938 326.542969 C 137.664062 327.117188 137.664062 328.050781 137.085938 328.625 C 136.796875 328.917969 136.421875 329.058594 136.046875 329.058594 Z M 136.046875 329.058594 " fill-opacity="1" fill-rule="nonzero"/><path fill="#000000" d="M 132.339844 330.9375 C 134.285156 332.882812 137.445312 332.882812 139.398438 330.9375 C 141.347656 328.988281 141.34375 325.832031 139.398438 323.878906 C 137.449219 321.929688 134.289062 321.933594 132.339844 323.878906 C 130.386719 325.824219 130.390625 328.984375 132.339844 330.9375 Z M 132.339844 330.9375 " fill-opacity="1" fill-rule="nonzero"/><path fill="#000000" d="M 209.078125 348.863281 C 208.285156 348.863281 207.632812 348.242188 207.601562 347.445312 C 207.574219 346.628906 208.210938 345.945312 209.023438 345.921875 L 225.746094 345.335938 C 226.582031 345.308594 227.246094 345.945312 227.269531 346.757812 C 227.300781 347.574219 226.660156 348.253906 225.851562 348.28125 L 209.125 348.863281 C 209.125 348.863281 209.089844 348.863281 209.070312 348.863281 Z M 209.078125 348.863281 " fill-opacity="1" fill-rule="nonzero"/><path fill="#000000" d="M 209.15625 342.394531 C 206.402344 342.492188 204.246094 344.800781 204.34375 347.554688 C 204.441406 350.304688 206.75 352.460938 209.503906 352.363281 C 212.257812 352.265625 214.414062 349.957031 214.316406 347.203125 C 214.21875 344.453125 211.910156 342.296875 209.15625 342.394531 Z M 209.15625 342.394531 " fill-opacity="1" fill-rule="nonzero"/><path fill="#000000" d="M 243.617188 369.261719 C 243.144531 369.261719 242.683594 369.035156 242.398438 368.617188 C 241.941406 367.945312 242.113281 367.023438 242.785156 366.566406 L 257.691406 356.4375 C 258.363281 355.980469 259.285156 356.152344 259.742188 356.824219 C 260.199219 357.496094 260.027344 358.417969 259.351562 358.875 L 244.449219 369.003906 C 244.191406 369.175781 243.90625 369.261719 243.621094 369.261719 Z M 243.617188 369.261719 " fill-opacity="1" fill-rule="nonzero"/><path fill="#000000" d="M 261.121094 361.917969 C 263.402344 360.371094 263.992188 357.265625 262.445312 354.992188 C 260.894531 352.710938 257.789062 352.121094 255.511719 353.671875 C 253.230469 355.21875 252.640625 358.324219 254.191406 360.597656 C 255.738281 362.878906 258.847656 363.46875 261.121094 361.917969 Z M 261.121094 361.917969 " fill-opacity="1" fill-rule="nonzero"/><path fill="#000000" d="M 329.46875 285.625 C 328.996094 285.625 328.539062 285.402344 328.253906 284.984375 C 327.792969 284.3125 327.964844 283.398438 328.632812 282.9375 L 342.800781 273.203125 C 343.46875 272.742188 344.390625 272.914062 344.851562 273.582031 C 345.3125 274.253906 345.140625 275.167969 344.472656 275.628906 L 330.304688 285.363281 C 330.050781 285.542969 329.757812 285.625 329.46875 285.625 Z M 329.46875 285.625 " fill-opacity="1" fill-rule="nonzero"/><path fill="#000000" d="M 346.257812 278.667969 C 348.527344 277.105469 349.105469 274 347.539062 271.730469 C 345.976562 269.460938 342.871094 268.886719 340.597656 270.445312 C 338.328125 272.007812 337.753906 275.113281 339.316406 277.386719 C 340.878906 279.65625 343.984375 280.230469 346.257812 278.667969 Z M 346.257812 278.667969 " fill-opacity="1" fill-rule="nonzero"/><path fill="#000000" d="M 338.476562 310.988281 C 338.136719 310.988281 337.792969 310.871094 337.515625 310.632812 C 336.898438 310.101562 336.828125 309.175781 337.355469 308.554688 L 347.824219 296.347656 C 348.355469 295.726562 349.285156 295.65625 349.90625 296.183594 C 350.523438 296.714844 350.59375 297.644531 350.066406 298.261719 L 339.597656 310.472656 C 339.304688 310.8125 338.894531 310.988281 338.476562 310.988281 Z M 338.476562 310.988281 " fill-opacity="1" fill-rule="nonzero"/><path fill="#000000" d="M 352.570312 300.738281 C 354.363281 298.644531 354.121094 295.496094 352.027344 293.707031 C 349.933594 291.914062 346.785156 292.15625 344.992188 294.246094 C 343.199219 296.339844 343.445312 299.488281 345.535156 301.277344 C 347.628906 303.070312 350.78125 302.832031 352.570312 300.738281 Z M 352.570312 300.738281 " fill-opacity="1" fill-rule="nonzero"/><path fill="#000000" d="M 327.9375 338.820312 C 327.539062 338.820312 327.144531 338.664062 326.855469 338.351562 C 326.296875 337.753906 326.332031 336.820312 326.933594 336.265625 L 339.273438 324.8125 C 339.867188 324.257812 340.800781 324.292969 341.355469 324.890625 C 341.910156 325.488281 341.878906 326.421875 341.277344 326.976562 L 328.9375 338.429688 C 328.652344 338.695312 328.292969 338.820312 327.9375 338.820312 Z M 327.9375 338.820312 " fill-opacity="1" fill-rule="nonzero"/><path fill="#000000" d="M 324.71875 333.523438 C 322.699219 335.398438 322.582031 338.554688 324.460938 340.574219 C 326.335938 342.59375 329.492188 342.714844 331.515625 340.835938 C 333.535156 338.964844 333.652344 335.804688 331.773438 333.785156 C 329.902344 331.765625 326.742188 331.648438 324.71875 333.523438 Z M 324.71875 333.523438 " fill-opacity="1" fill-rule="nonzero"/></g></g></svg>